<svg width="128" height="33" viewBox="0 0 128 33" fill="none" xmlns="http://www.w3.org/2000/svg">
<g clip-path="url(#clip0_18576_8082)">
<path d="M14.2573 27.2549L27.8469 19.3729V24.1152L13.9236 32.0116L0 24.0212V7.96138L13.909 0L27.8469 7.96138L27.8397 15.4392L23.8274 17.7271V10.3001L23.4646 10.0906L14.2501 4.82153L13.8872 4.61944L13.5244 4.82153L4.35334 10.0906L3.9907 10.3001V21.7259L4.35334 21.9353L6.47198 23.1622L7.5677 23.7975V12.3353L13.9236 8.66885L20.2721 12.3353V19.6687L15.0336 22.8087V18.2687L16.0059 17.6406L16.3323 17.4241V17.0414L16.3468 15.035V14.609L15.9842 14.3997L14.2935 13.4398L13.9381 13.2305L13.5753 13.4326L11.8484 14.3853L11.4784 14.5874V26.0134L11.8267 26.2299L13.5172 27.2477L13.88 27.4715L14.2573 27.2549Z" fill="black"/>
<path fill-rule="evenodd" clip-rule="evenodd" d="M83.6162 22.8703C84.0762 22.8703 84.4968 22.8311 84.8777 22.7524C85.2586 22.6737 85.6146 22.5558 85.9452 22.3985L85.1475 19.9316C85.0179 20.0173 84.8813 20.0854 84.7376 20.1352C84.5938 20.1855 84.4 20.2105 84.1553 20.2105C83.7818 20.2105 83.4942 20.096 83.2928 19.8672C83.1491 19.724 83.0519 19.5491 83.0018 19.3417C82.9515 19.1343 82.9262 18.9091 82.9262 18.6659V14.5901H85.5138V12.1877H82.9262V8.96973H80.1015V12.1877H78.2472V14.5901H80.1015V19.2023C80.1015 20.3892 80.4392 21.3045 81.1149 21.9481C81.4024 22.2341 81.7582 22.4593 82.1824 22.6237C82.6066 22.7882 83.0843 22.8703 83.6162 22.8703ZM70.6244 22.6988V17.5506C70.6244 17.1214 70.6783 16.7175 70.786 16.3385C70.8938 15.9594 71.052 15.6305 71.2605 15.3516C71.4688 15.0727 71.7205 14.8511 72.0151 14.6866C72.3097 14.5222 72.6512 14.44 73.0393 14.44C73.6863 14.44 74.1787 14.6223 74.5164 14.9871C74.8544 15.3516 75.0233 15.9129 75.0233 16.6708V22.6988H77.8481V16.3277C77.8481 15.6557 77.7654 15.0441 77.6 14.4936C77.4348 13.9431 77.1905 13.4711 76.8669 13.0777C76.5435 12.6845 76.1302 12.3807 75.6271 12.1661C75.1239 11.9515 74.5415 11.8444 73.8805 11.8444C73.1615 11.8444 72.522 11.9981 71.9612 12.3056C71.5875 12.5105 71.0844 12.9289 70.4517 13.5605V12.1877H67.7993V22.6988H70.6244ZM58.8398 16.0917H63.9504C63.9359 15.9059 63.8749 15.6985 63.7671 15.4695C63.6592 15.2407 63.5012 15.0263 63.2928 14.8261C63.0841 14.6259 62.8255 14.4614 62.5164 14.3327C62.2073 14.2039 61.8371 14.1397 61.4059 14.1397C60.8022 14.1397 60.2701 14.3112 59.8101 14.6546C59.3501 14.9977 59.0267 15.4769 58.8398 16.0917ZM61.5137 23.0419C62.707 23.0419 63.7168 22.7774 64.5432 22.2484C65.3699 21.7193 66.0277 21.0256 66.5165 20.1674L64.1659 19.0092C63.9216 19.4526 63.5874 19.8207 63.1632 20.114C62.7392 20.4071 62.2037 20.5536 61.5568 20.5536C61.2262 20.5536 60.9028 20.5072 60.5864 20.4143C60.2701 20.3214 59.9791 20.1712 59.7131 19.9637C59.4471 19.7563 59.2243 19.499 59.0446 19.1915C58.8649 18.8841 58.7464 18.5157 58.6889 18.0867H66.6459C66.6459 18.001 66.6531 17.9224 66.6674 17.8509C66.6674 17.7794 66.6746 17.7008 66.6889 17.6149V17.3574C66.6889 16.5709 66.574 15.8415 66.344 15.1694C66.114 14.4972 65.776 13.9145 65.3304 13.421C64.8847 12.9276 64.3313 12.5416 63.6699 12.2627C63.0088 11.9837 62.254 11.8444 61.4059 11.8444C60.6009 11.8444 59.864 11.9945 59.1955 12.2948C58.5271 12.5951 57.9485 12.9992 57.4597 13.5069C56.971 14.0146 56.59 14.6081 56.317 15.2873C56.0437 15.9666 55.9072 16.6852 55.9072 17.4431C55.9072 18.2583 56.0473 19.0056 56.3276 19.6848C56.6079 20.364 56.9997 20.9542 57.5028 21.4546C58.0061 21.9551 58.5991 22.345 59.2819 22.6237C59.9646 22.9026 60.7086 23.0419 61.5137 23.0419ZM56.2415 12.1877L51.6915 22.6988H48.9097L44.403 12.1877H47.616L50.2469 18.8805H50.3978L53.05 12.1877H56.2415ZM41.8908 16.0917H36.7804C36.9673 15.4769 37.2907 14.9977 37.7507 14.6546C38.2107 14.3112 38.7426 14.1397 39.3463 14.1397C39.7777 14.1397 40.1478 14.2039 40.4568 14.3327C40.7659 14.4614 41.0247 14.6259 41.2332 14.8261C41.4417 15.0263 41.5998 15.2407 41.7077 15.4695C41.8153 15.6985 41.8765 15.9059 41.8908 16.0917ZM42.4838 22.2484C41.6572 22.7774 40.6474 23.0419 39.4541 23.0419C38.6492 23.0419 37.9052 22.9026 37.2223 22.6237C36.5395 22.345 35.9465 21.9551 35.4434 21.4546C34.9401 20.9542 34.5485 20.364 34.268 19.6848C33.9879 19.0056 33.8477 18.2583 33.8477 17.4431C33.8477 16.6852 33.9843 15.9666 34.2574 15.2873C34.5304 14.6081 34.9114 14.0146 35.4001 13.5069C35.8889 12.9992 36.4677 12.5951 37.1361 12.2948C37.8046 11.9945 38.5413 11.8444 39.3463 11.8444C40.1946 11.8444 40.9493 11.9837 41.6105 12.2627C42.2717 12.5416 42.8253 12.9276 43.271 13.421C43.7166 13.9145 44.0544 14.4972 44.2844 15.1694C44.5144 15.8415 44.6295 16.5709 44.6295 17.3574V17.6149C44.6151 17.7008 44.6078 17.7794 44.6078 17.8509C44.5935 17.9224 44.5863 18.001 44.5863 18.0867H36.6294C36.6868 18.5157 36.8053 18.8841 36.9852 19.1915C37.1649 19.499 37.3877 19.7563 37.6537 19.9637C37.9195 20.1712 38.2107 20.3214 38.527 20.4143C38.8432 20.5072 39.1668 20.5536 39.4972 20.5536C40.1441 20.5536 40.6796 20.4071 41.1038 20.114C41.528 19.8207 41.8622 19.4526 42.1065 19.0092L44.4569 20.1674C43.9681 21.0256 43.3105 21.7193 42.4838 22.2484Z" fill="black"/>
<path fill-rule="evenodd" clip-rule="evenodd" d="M102.943 8.94836C102.583 9.29868 102.152 9.47384 101.649 9.47384C101.405 9.47384 101.171 9.4274 100.948 9.33432C100.725 9.24143 100.531 9.11271 100.366 8.94836C100.201 8.78381 100.071 8.59443 99.9778 8.37984C99.8843 8.16524 99.8376 7.92942 99.8376 7.67198C99.8376 7.41454 99.8843 7.17853 99.9778 6.96413C100.071 6.74953 100.201 6.55996 100.366 6.39561C100.531 6.23106 100.725 6.10234 100.948 6.00945C101.171 5.91656 101.405 5.87012 101.649 5.87012C102.152 5.87012 102.583 6.04528 102.943 6.39561C103.302 6.74593 103.482 7.17133 103.482 7.67198C103.482 8.17245 103.302 8.59784 102.943 8.94836ZM107.673 20.2426V26.1416H104.848V10.997H107.501V12.2626C108.027 11.7026 108.487 11.3237 108.881 11.1256C109.472 10.8285 110.103 10.6537 110.908 10.6537C111.584 10.6537 112.227 10.7931 112.838 11.0721C113.449 11.351 113.988 11.7369 114.455 12.2304C114.922 12.7238 115.292 13.3138 115.565 14.0002C115.839 14.6866 115.975 15.4373 115.975 16.2525C115.975 17.0676 115.839 17.8185 115.565 18.505C115.292 19.1914 114.922 19.7813 114.455 20.2748C113.988 20.7682 113.449 21.1544 112.838 21.4331C112.227 21.7119 111.584 21.8513 110.908 21.8513C110.103 21.8513 109.427 21.6941 108.881 21.3794C108.334 21.0649 107.932 20.686 107.673 20.2426ZM125.142 21.0577C124.316 21.5868 123.306 21.8513 122.113 21.8513C121.308 21.8513 120.564 21.7119 119.881 21.4331C119.198 21.1544 118.605 20.7645 118.102 20.264C117.599 19.7635 117.207 19.1734 116.927 18.4942C116.646 17.8149 116.506 17.0676 116.506 16.2525C116.506 15.4946 116.643 14.7759 116.916 14.0967C117.189 13.4175 117.57 12.8239 118.059 12.3163C118.548 11.8086 119.126 11.4044 119.795 11.1041C120.463 10.8039 121.2 10.6537 122.005 10.6537C122.853 10.6537 123.608 10.7931 124.269 11.0721C124.931 11.351 125.484 11.7369 125.93 12.2304C126.375 12.7238 126.713 13.3066 126.943 13.9788C127.173 14.6508 127.288 15.3803 127.288 16.1668V16.4242C127.274 16.5101 127.267 16.5888 127.267 16.6603C127.252 16.7317 127.245 16.8104 127.245 16.8961H119.288C119.345 17.3251 119.464 17.6934 119.644 18.0009C119.824 18.3084 120.046 18.5656 120.312 18.773C120.578 18.9806 120.869 19.1307 121.186 19.2236C121.502 19.3165 121.825 19.363 122.156 19.363C122.803 19.363 123.338 19.2164 123.762 18.9233C124.187 18.6301 124.521 18.2619 124.765 17.8185L127.116 18.9768C126.627 19.835 125.969 20.5286 125.142 21.0577ZM119.439 14.901H124.55C124.535 14.7153 124.474 14.5079 124.366 14.2789C124.258 14.0501 124.1 13.8357 123.892 13.6355C123.683 13.4353 123.425 13.2707 123.116 13.142C122.806 13.0133 122.436 12.949 122.005 12.949C121.401 12.949 120.869 13.1206 120.409 13.4639C119.949 13.807 119.626 14.2863 119.439 14.901ZM110.326 19.2559C109.952 19.2559 109.596 19.188 109.258 19.0521C108.92 18.9161 108.622 18.7196 108.363 18.4621C108.104 18.2047 107.896 17.89 107.738 17.5183C107.58 17.1463 107.501 16.7243 107.501 16.2525C107.501 15.7807 107.58 15.3587 107.738 14.9869C107.896 14.615 108.104 14.3005 108.363 14.0431C108.622 13.7856 108.92 13.589 109.258 13.4531C109.596 13.3172 109.952 13.2493 110.326 13.2493C110.699 13.2493 111.055 13.3208 111.393 13.4639C111.731 13.6069 112.029 13.807 112.288 14.0645C112.547 14.3219 112.755 14.6366 112.913 15.0083C113.071 15.3803 113.15 15.7949 113.15 16.2525C113.15 16.7101 113.071 17.1249 112.913 17.4968C112.755 17.8686 112.547 18.1833 112.288 18.4405C112.029 18.6981 111.731 18.8981 111.393 19.0413C111.055 19.1842 110.699 19.2559 110.326 19.2559ZM100.247 21.5081H103.072V10.997H100.247V21.5081ZM93.4224 19.2559C93.0487 19.2559 92.6929 19.188 92.3552 19.0521C92.0172 18.9161 91.719 18.7196 91.4602 18.4621C91.2014 18.2047 90.9929 17.89 90.8348 17.5183C90.6768 17.1463 90.5977 16.7243 90.5977 16.2525C90.5977 15.7807 90.6768 15.3587 90.8348 14.9869C90.9929 14.615 91.2014 14.3005 91.4602 14.0431C91.719 13.7856 92.0172 13.589 92.3552 13.4531C92.6929 13.3172 93.0487 13.2493 93.4224 13.2493C93.7963 13.2493 94.152 13.3208 94.4899 13.4639C94.8278 13.6069 95.1262 13.807 95.3848 14.0645C95.6436 14.3219 95.852 14.6366 96.01 15.0083C96.1682 15.3803 96.2472 15.7949 96.2472 16.2525C96.2472 16.7101 96.1682 17.1249 96.01 17.4968C95.852 17.8686 95.6436 18.1833 95.3848 18.4405C95.1262 18.6981 94.8278 18.8981 94.4899 19.0413C94.152 19.1842 93.7963 19.2559 93.4224 19.2559ZM90.7702 20.2426V26.1416H87.9453V10.997H90.5977V12.2626C91.1239 11.7026 91.5839 11.3237 91.9777 11.1256C92.5687 10.8285 93.1996 10.6537 94.0047 10.6537C94.6805 10.6537 95.3238 10.7931 95.9347 11.0721C96.5457 11.351 97.0848 11.7369 97.5518 12.2304C98.0191 12.7238 98.3893 13.3138 98.6624 14.0002C98.9357 14.6866 99.0723 15.4373 99.0723 16.2525C99.0723 17.0676 98.9357 17.8185 98.6624 18.505C98.3893 19.1914 98.0191 19.7813 97.5518 20.2748C97.0848 20.7682 96.5457 21.1544 95.9347 21.4331C95.3238 21.7119 94.6805 21.8513 94.0047 21.8513C93.1996 21.8513 92.5239 21.6941 91.9777 21.3794C91.4314 21.0649 91.029 20.686 90.7702 20.2426Z" fill="black"/>
</g>
<defs>
<clipPath id="clip0_18576_8082">
<rect width="128" height="33" fill="white"/>
</clipPath>
</defs>
</svg>
